<svg xmlns="http://www.w3.org/2000/svg" xmlns:xlink="http://www.w3.org/1999/xlink" version="1.1" x="0px" y="0px" viewBox="0 0 100 125" enable-background="new 0 0 100 100" xml:space="preserve"><path d="M75.201,41.989c0,0-0.089,0.028-0.263,0.058c0.003,0.067,0.008,0.133,0.002,0.201c-0.073,0.841-0.797,1.465-1.617,1.393  c-0.82-0.071-1.425-0.811-1.352-1.652c0.003-0.03,0.012-0.058,0.016-0.088c-1.16-0.23-2.625-0.681-4.408-1.541  c0,0,8.594,0.023,8.8,0C76.253,41.747,75.201,41.989,75.201,41.989z M80.635,53.156l-3.93,3.173l2.799,2.094l0.205-0.165  c0.538-0.435,0.746-1.161,0.519-1.815l-0.253-0.727l0.752-0.914c0.363-0.442,0.366-1.078,0.007-1.523L80.635,53.156z M80.347,49.918  c-0.189,0-0.342,0.153-0.342,0.342c0,0.105,0.104,0.339,0.356,0.339c0.168,0.007,0.399-0.037,0.663-0.135  c0.405-0.151,0.706-0.377,0.749-0.547C81.773,49.918,80.352,49.918,80.347,49.918z M65.661,68.423c0-1.055,0.059-2.098,0.169-3.13  l-9.486-3.775c4.295-2.913,7.118-7.834,7.118-13.415V38.047h17.337c-1.777-12.066-12.171-21.328-24.73-21.328  c-4.616,0-8.937,1.256-12.648,3.438c0.154-0.79,0.237-1.606,0.237-2.441C43.657,10.693,37.964,5,30.942,5  s-12.715,5.693-12.715,12.715S23.92,30.43,30.942,30.43c1.036,0,2.042-0.127,3.006-0.361c-1.743,3.303-2.765,7.043-2.865,11.014  l-0.016,0.007v7.013c0,8.946,7.252,16.198,16.198,16.198h0c0.571,0,1.134-0.03,1.689-0.088C47.802,79.704,42.038,84.776,42.038,95  c6.995,0,30.448,0,37.971,0C71.174,88.333,65.661,78.893,65.661,68.423z"/><text x="0" y="115" fill="#000000" font-size="5px" font-weight="bold" font-family="'Helvetica Neue', Helvetica, Arial-Unicode, Arial, Sans-serif">Created by Laymik</text><text x="0" y="120" fill="#000000" font-size="5px" font-weight="bold" font-family="'Helvetica Neue', Helvetica, Arial-Unicode, Arial, Sans-serif">from the Noun Project</text></svg>